# xmcd
#
# Track frame offsets:
# 150
# 14135
# 22632
# 33837
# 52377
# 64615
# 82180
# 92625
# 104992
# 122212
# 133100
# 144835
# 161570
# 176935
# 194037
# 217872
#
# Disc length: 3108 seconds
#
#
# Revision: 0
# Processed by: cddbd v1.5.1PL0 Copyright (c) Steve Scherf et al.
# Submitted via: FreeRIP 2.90 
#
DISCID=ee0c2210
DTITLE=Graeme Allwright - Master
DYEAR=1993
DGENRE=Chanson
TTITLE0=Emmène-moi
TTITLE1=Petites boites
TTITLE2=Le jour de clarté
TTITLE3=Suzanne
TTITLE4=Petit garcon
TTITLE5=Demain sera bien
TTITLE6=Qu'as-tu appris à l'école
TTITLE7=Jolie bouteille
TTITLE8=Il faut que je m'en aille
TTITLE9=Ca je ne l'ai jamais vu
TTITLE10=Qui a tué Davy Moore
TTITLE11=La petite souris
TTITLE12=Ballade de la désescalade
TTITLE13=Jusqu'à la ceinture
TTITLE14=L'étranger
TTITLE15=Lover, lover, lover
EXTD=YEAR: 1993 ID3G: 102
EXTT0=
EXTT1=
EXTT2=
EXTT3=
EXTT4=
EXTT5=
EXTT6=
EXTT7=
EXTT8=
EXTT9=
EXTT10=
EXTT11=
EXTT12=
EXTT13=
EXTT14=
EXTT15=
PLAYORDER=
